# xmcd
#
# Track frame offsets:
#	150
#	20130
#	38132
#	54162
#	71945
#	88434
#	105999
#	123995
#	141468
#	160171
#	179350
#	200320
#	217746
#	236327
#
# Disc length: 3408 seconds
#
# Revision: 0
# Processed by: cddbd v1.5.2PL0 Copyright (c) Steve Scherf et al.
# Submitted via: audiograbber 1.83.01
#
DISCID=c30d4e0e
DTITLE=Lea Pennanen - Me Leijonat cd 1/5
DYEAR=2008
DGENRE=speech
TTITLE0=Luku 1. Me leijonat
TTITLE1=Luku 1. Me leijonat - osa2
TTITLE2=Luku2. Täti Krokotiilin narinapaikka
TTITLE3=Luku2. Täti Krokotiilin narinapaikka -osa2
TTITLE4=Luku3. Pyykkipäivä
TTITLE5=Luku3. Pyykkipäivä -osa2
TTITLE6=Luku4. Sadepäivä
TTITLE7=Luku4. Sadepäivä -osa2
TTITLE8=Luku5. Tuhkarokko
TTITLE9=Luku5. Tuhkarokko -osa2
TTITLE10=Luku6. Simpanssi merenkulkija
TTITLE11=Luku6. Simpanssi merenkulkija -osa2
TTITLE12=Luku7. Isäleijonan salalaatikot
TTITLE13=Luku7. Isäleijonan salalaatikot -osa2
EXTD=
EXTT0=
EXTT1=
EXTT2=
EXTT3=
EXTT4=
EXTT5=
EXTT6=
EXTT7=
EXTT8=
EXTT9=
EXTT10=
EXTT11=
EXTT12=
EXTT13=
PLAYORDER=
